<?xml version="1.0" encoding="utf-8"?>
<!-- Generator: Adobe Illustrator 19.0.0, SVG Export Plug-In . SVG Version: 6.00 Build 0)  -->
<svg version="1.1" id="Слой_1" xmlns="http://www.w3.org/2000/svg" xmlns:xlink="http://www.w3.org/1999/xlink" x="0px" y="0px"
	 viewBox="0 0 35 35" style="enable-background:new 0 0 35 35;" xml:space="preserve">
<style type="text/css">
	.st0{fill:#2E2E2E;}
	.st1{fill:#FFFFFF;}
</style>
<g>
	<circle id="XMLID_3_" class="st0" cx="17.5" cy="17.5" r="17.5"/>
	<g>
		<path id="XMLID_2_" class="st1" d="M24.3,9.9L9.9,24.3c-0.2,0.2-0.2,0.6,0,0.8c0.2,0.2,0.6,0.2,0.8,0l14.3-14.3
			c0.2-0.2,0.2-0.6,0-0.8C24.9,9.7,24.5,9.7,24.3,9.9z"/>
		<path id="XMLID_1_" class="st1" d="M25.1,24.3L10.7,9.9c-0.2-0.2-0.6-0.2-0.8,0s-0.2,0.6,0,0.8l14.3,14.3c0.2,0.2,0.6,0.2,0.8,0
			C25.3,24.9,25.3,24.5,25.1,24.3z"/>
	</g>
</g>
</svg>
