<?xml version="1.0" encoding="utf-8"?>
<!-- Generator: Adobe Illustrator 19.0.0, SVG Export Plug-In . SVG Version: 6.00 Build 0)  -->
<svg version="1.1" id="Слой_1" xmlns="http://www.w3.org/2000/svg" xmlns:xlink="http://www.w3.org/1999/xlink" x="0px" y="0px"
	 viewBox="0 0 35 35" style="enable-background:new 0 0 35 35;" xml:space="preserve">
<style type="text/css">
	.st0{display:none;fill:#2E2E2E;}
	.st1{fill:#2E2E2E;stroke:#2E2E2E;stroke-width:0.5;stroke-miterlimit:10;}
	.st2{fill:#2E2E2E;}
	.st3{fill:#FFFFFF;}
</style>
<g id="XMLID_2_">
	<g id="XMLID_8_">
		<path id="XMLID_13_" class="st0" d="M18.7-1.9c-10,0-18.2,8.1-18.2,18.1s8.1,18.1,18.2,18.1s18.2-8.1,18.2-18.1S28.7-1.9,18.7-1.9
			z M18.7,33.1c-9.3,0-16.9-7.6-16.9-16.8S9.4-0.6,18.7-0.6s16.9,7.6,16.9,16.8S28,33.1,18.7,33.1z"/>
		<g id="XMLID_9_">
			<path id="XMLID_10_" class="st1" d="M13.4,19.1c1.8,2.1,3.9,3.8,6.3,4.9c0.9,0.4,2.1,1,3.5,1c0.1,0,0.2,0,0.3,0
				c0.9,0,1.7-0.3,2.3-1c0,0,0,0,0,0c0.2-0.3,0.5-0.5,0.7-0.7c0.2-0.2,0.4-0.3,0.5-0.5c0.8-0.8,0.8-1.9,0-2.7L24.7,18
				c-0.4-0.4-0.8-0.6-1.3-0.6c-0.5,0-0.9,0.2-1.3,0.6l-1.3,1.3c-0.1-0.1-0.2-0.1-0.4-0.2c-0.1-0.1-0.3-0.1-0.4-0.2
				c-1.2-0.8-2.3-1.8-3.3-3c-0.5-0.7-0.9-1.2-1.1-1.8c0.3-0.3,0.7-0.6,1-1c0.1-0.1,0.2-0.2,0.3-0.3c0.4-0.4,0.6-0.9,0.6-1.3
				s-0.2-0.9-0.6-1.3L15.8,9c-0.1-0.1-0.3-0.3-0.4-0.4c-0.2-0.3-0.5-0.5-0.7-0.7c-0.4-0.4-0.8-0.6-1.3-0.6c-0.5,0-0.9,0.2-1.3,0.6
				l-1.4,1.4c-0.5,0.5-0.8,1.1-0.8,1.8c-0.1,0.9,0.1,1.8,0.5,3C11,15.8,11.9,17.4,13.4,19.1z M10.7,11.2c0-0.5,0.2-0.9,0.6-1.3
				l1.4-1.4c0.2-0.2,0.5-0.3,0.7-0.3c0.2,0,0.5,0.1,0.7,0.3c0.2,0.2,0.5,0.5,0.7,0.7c0.1,0.1,0.3,0.3,0.4,0.4l1.1,1.1
				c0.2,0.2,0.3,0.5,0.3,0.7s-0.1,0.5-0.3,0.7c-0.1,0.1-0.2,0.2-0.3,0.3c-0.3,0.3-0.7,0.7-1,1c0,0,0,0,0,0c-0.3,0.3-0.3,0.6-0.2,0.8
				c0,0,0,0,0,0c0.3,0.7,0.7,1.3,1.3,2.1c1.1,1.4,2.3,2.4,3.6,3.2c0.2,0.1,0.3,0.2,0.5,0.3c0.1,0.1,0.3,0.1,0.4,0.2c0,0,0,0,0,0
				c0.1,0.1,0.2,0.1,0.4,0.1c0.3,0,0.5-0.2,0.6-0.3l1.4-1.4c0.2-0.2,0.4-0.3,0.7-0.3c0.3,0,0.5,0.2,0.7,0.3l2.2,2.2
				c0.4,0.4,0.4,0.9,0,1.4c-0.2,0.2-0.3,0.3-0.5,0.5c-0.3,0.3-0.5,0.5-0.8,0.8c-0.4,0.5-0.9,0.7-1.6,0.7c-0.1,0-0.1,0-0.2,0
				c-1.2-0.1-2.3-0.5-3.2-1c-2.3-1.1-4.3-2.7-6-4.7c-1.4-1.7-2.3-3.2-2.9-4.9C10.8,12.7,10.7,11.9,10.7,11.2z"/>
		</g>
	</g>
	<ellipse id="XMLID_7_" class="st2" cx="17.5" cy="17.5" rx="17.5" ry="17.5"/>
	<g id="XMLID_3_">
		<g id="XMLID_4_">
			<g id="XMLID_5_">
				<path id="XMLID_6_" class="st3" d="M24.9,22l-2.4-2.4c-0.5-0.5-1.3-0.5-1.8,0l-1.2,1.2c-0.1,0-0.2-0.1-0.2-0.1
					c-0.8-0.4-1.8-1-2.9-2.1c-1.1-1.1-1.7-2.1-2.1-2.9c0-0.1-0.1-0.2-0.1-0.2l0.8-0.8l0.4-0.4c0.5-0.5,0.5-1.3,0-1.8L13,10.1
					c-0.5-0.5-1.3-0.5-1.8,0l-0.7,0.7l0,0c-0.2,0.3-0.4,0.6-0.6,1c-0.1,0.3-0.2,0.7-0.2,1c-0.3,2.6,0.9,5,4.1,8.3
					c4.5,4.5,8.1,4.2,8.3,4.1c0.3,0,0.7-0.1,1-0.3c0.4-0.1,0.7-0.3,1-0.6l0,0l0.7-0.7C25.4,23.3,25.4,22.5,24.9,22z"/>
			</g>
		</g>
	</g>
</g>
</svg>
